# xmcd
#
# Track frame offsets:
#	187
#	6432
#	16182
#	27157
#	94550
#	107500
#	123055
#	141812
#	158697
#	175262
#	191792
#	217905
#	257837
#	277817
#	298260
#	316365
#
# Disc length: 4530 seconds
#
# Revision: 0
# Processed by: cddbd v1.5.2PL0 Copyright (c) Steve Scherf et al.
# Submitted via: EasyCDDAExtractor 12.0.1.1
#
DISCID=d411b010
DTITLE=Jimi Hendrix - Electric Ladyland
DYEAR=1997
DGENRE=
TTITLE0=And the Gods Made Love
TTITLE1=Have You Ever Been [To Electric Ladyland]
TTITLE2=Crosstown Traffic
TTITLE3=Voodoo Chile
TTITLE4=Little Miss Strange
TTITLE5=Long Hot Summer Night
TTITLE6=Come On [Let the Good Times Roll]
TTITLE7=Gypsy Eyes
TTITLE8=Burning of the Midnight Lamp
TTITLE9=Rainy Day, Dream Away
TTITLE10=1983... [A Merman I Should Turn to Be]
TTITLE11=Moon, Turn the Tides... Gently, Gently Away
TTITLE12=Still Raining, Still Dreaming
TTITLE13=House Burning Down
TTITLE14=All Along the Watchtower
TTITLE15=Voodoo Child [Slight Return]
EXTD=YEAR: 1968\n
EXTT0=
EXTT1=
EXTT2=
EXTT3=
EXTT4=
EXTT5=
EXTT6=
EXTT7=
EXTT8=
EXTT9=
EXTT10=
EXTT11=
EXTT12=
EXTT13=
EXTT14=
EXTT15=
PLAYORDER=
